<svg width="25" height="24" viewBox="0 0 25 24" fill="none" xmlns="http://www.w3.org/2000/svg">
<path d="M4.66668 14.0002C4.47744 14.0008 4.29191 13.9477 4.13163 13.8471C3.97136 13.7465 3.84291 13.6025 3.76123 13.4318C3.67955 13.2611 3.64797 13.0707 3.67018 12.8828C3.69239 12.6949 3.76746 12.5171 3.88668 12.3702L13.7867 2.17016C13.8609 2.08444 13.9621 2.02652 14.0737 2.0059C14.1852 1.98527 14.3004 2.00318 14.4004 2.05667C14.5004 2.11016 14.5793 2.19606 14.624 2.30027C14.6688 2.40448 14.6768 2.52081 14.6467 2.63016L12.7267 8.65016C12.6701 8.80169 12.6511 8.96468 12.6713 9.12517C12.6915 9.28566 12.7503 9.43884 12.8428 9.57159C12.9352 9.70434 13.0585 9.81268 13.202 9.88732C13.3455 9.96197 13.5049 10.0007 13.6667 10.0002H20.6667C20.8559 9.99952 21.0414 10.0526 21.2017 10.1532C21.362 10.2538 21.4904 10.3978 21.5721 10.5685C21.6538 10.7392 21.6854 10.9296 21.6632 11.1175C21.641 11.3054 21.5659 11.4832 21.4467 11.6302L11.5467 21.8302C11.4724 21.9159 11.3712 21.9738 11.2597 21.9944C11.1482 22.0151 11.033 21.9972 10.9329 21.9437C10.8329 21.8902 10.7541 21.8043 10.7093 21.7001C10.6646 21.5958 10.6566 21.4795 10.6867 21.3702L12.6067 15.3502C12.6633 15.1986 12.6823 15.0356 12.6621 14.8752C12.6419 14.7147 12.583 14.5615 12.4906 14.4287C12.3982 14.296 12.2749 14.1876 12.1314 14.113C11.9879 14.0384 11.8284 13.9996 11.6667 14.0002H4.66668Z" stroke="#314158" stroke-width="1.5" stroke-linecap="round" stroke-linejoin="round"/>
</svg>
