<svg width="25" height="24" viewBox="0 0 25 24" fill="none" xmlns="http://www.w3.org/2000/svg">
<path d="M12.3333 16H4.33334C3.80291 16 3.2942 15.7893 2.91913 15.4142C2.54406 15.0391 2.33334 14.5304 2.33334 14C2.33334 13.4696 2.54406 12.9609 2.91913 12.5858C3.2942 12.2107 3.80291 12 4.33334 12H20.3333C20.8638 12 21.3725 12.2107 21.7476 12.5858C22.1226 12.9609 22.3333 13.4696 22.3333 14C22.3333 14.5304 22.1226 15.0391 21.7476 15.4142C21.3725 15.7893 20.8638 16 20.3333 16H16.0833" stroke="#314158" stroke-width="1.5" stroke-linecap="round" stroke-linejoin="round"/>
<path d="M5.33334 12C4.80291 12 4.2942 11.7893 3.91913 11.4142C3.54406 11.0391 3.33334 10.5304 3.33334 10C3.33334 8.14348 4.28155 6.36301 5.96938 5.05025C7.65721 3.7375 9.9464 3 12.3333 3C14.7203 3 17.0095 3.7375 18.6973 5.05025C20.3851 6.36301 21.3333 8.14348 21.3333 10C21.3333 10.5304 21.1226 11.0391 20.7476 11.4142C20.3725 11.7893 19.8638 12 19.3333 12" stroke="#314158" stroke-width="1.5" stroke-linecap="round" stroke-linejoin="round"/>
<path d="M5.33334 16C4.80291 16 4.2942 16.2107 3.91913 16.5858C3.54406 16.9609 3.33334 17.4696 3.33334 18C3.33334 18.7956 3.64941 19.5587 4.21202 20.1213C4.77463 20.6839 5.53769 21 6.33334 21H18.3333C19.129 21 19.8921 20.6839 20.4547 20.1213C21.0173 19.5587 21.3333 18.7956 21.3333 18C21.3333 17.4696 21.1226 16.9609 20.7476 16.5858C20.3725 16.2107 19.8638 16 19.3333 16" stroke="#314158" stroke-width="1.5" stroke-linecap="round" stroke-linejoin="round"/>
<path d="M7.00336 12L13.1334 16.6C13.5577 16.9183 14.0911 17.0549 14.6162 16.9799C14.8762 16.9428 15.1263 16.8548 15.3523 16.7209C15.5783 16.5871 15.7758 16.4101 15.9334 16.2L19.0834 12" stroke="#314158" stroke-width="1.5" stroke-linecap="round" stroke-linejoin="round"/>
</svg>
