<svg width="25" height="24" viewBox="0 0 25 24" fill="none" xmlns="http://www.w3.org/2000/svg">
<path d="M4.66668 13.9997C4.47744 14.0003 4.29191 13.9473 4.13163 13.8467C3.97136 13.746 3.84291 13.602 3.76123 13.4313C3.67955 13.2606 3.64797 13.0703 3.67018 12.8823C3.69239 12.6944 3.76746 12.5166 3.88668 12.3697L13.7867 2.16967C13.8609 2.08396 13.9621 2.02603 14.0737 2.00541C14.1852 1.98478 14.3004 2.00269 14.4004 2.05618C14.5004 2.10967 14.5793 2.19557 14.624 2.29978C14.6688 2.40399 14.6768 2.52032 14.6467 2.62967L12.7267 8.64967C12.6701 8.8012 12.6511 8.96419 12.6713 9.12468C12.6915 9.28517 12.7503 9.43836 12.8428 9.5711C12.9352 9.70385 13.0585 9.81219 13.202 9.88684C13.3455 9.96148 13.5049 10.0002 13.6667 9.99967H20.6667C20.8559 9.99903 21.0414 10.0521 21.2017 10.1527C21.362 10.2533 21.4904 10.3973 21.5721 10.568C21.6538 10.7387 21.6854 10.9291 21.6632 11.117C21.641 11.3049 21.5659 11.4827 21.4467 11.6297L11.5467 21.8297C11.4724 21.9154 11.3712 21.9733 11.2597 21.9939C11.1482 22.0146 11.033 21.9967 10.9329 21.9432C10.8329 21.8897 10.7541 21.8038 10.7093 21.6996C10.6646 21.5954 10.6566 21.479 10.6867 21.3697L12.6067 15.3497C12.6633 15.1982 12.6823 15.0352 12.6621 14.8747C12.6419 14.7142 12.583 14.561 12.4906 14.4282C12.3982 14.2955 12.2749 14.1872 12.1314 14.1125C11.9879 14.0379 11.8284 13.9991 11.6667 13.9997H4.66668Z" stroke="#314158" stroke-width="1.5" stroke-linecap="round" stroke-linejoin="round"/>
</svg>
