<svg width="25" height="24" viewBox="0 0 25 24" fill="none" xmlns="http://www.w3.org/2000/svg">
<path d="M12.1667 16C14.0997 16 15.6667 14.433 15.6667 12.5C15.6667 10.567 14.0997 9 12.1667 9C10.2337 9 8.66669 10.567 8.66669 12.5C8.66669 14.433 10.2337 16 12.1667 16Z" stroke="#314158" stroke-width="1.5" stroke-linecap="round" stroke-linejoin="round"/>
<path d="M3.66669 8C3.66669 4.5 6.16669 2 10.1667 2C15.1667 2 14.9967 5 17.6667 7C20.3367 9 22.6667 9 22.6667 13C22.6667 17.5 20.1667 19.5 15.6667 19.5C13.1667 19.5 13.1667 22 9.66669 22C6.16669 22 2.66669 20 2.66669 16.5C2.66669 13.5 4.16669 13.5 4.16669 11.5C4.16669 10 3.66669 9 3.66669 8Z" stroke="#314158" stroke-width="1.5" stroke-linecap="round" stroke-linejoin="round"/>
</svg>
